<mxfile host="app.diagrams.net" modified="2023-11-06T22:33:24.357Z" agent="Mozilla/5.0 (Windows NT 10.0; Win64; x64) AppleWebKit/537.36 (KHTML, like Gecko) Chrome/118.0.0.0 Safari/537.36" etag="UJrHs856MoJMTeuOGohU" version="22.0.8" type="device">
  <diagram name="Trang-1" id="i72IrtH6PUAaDIgn0kOE">
    <mxGraphModel dx="1050" dy="581" grid="1" gridSize="10" guides="1" tooltips="1" connect="1" arrows="1" fold="1" page="1" pageScale="1" pageWidth="827" pageHeight="1169" math="0" shadow="0">
      <root>
        <mxCell id="0" />
        <mxCell id="1" parent="0" />
        <mxCell id="8YLk6Y609KKv_byv0yrs-1" value="Start" style="ellipse;whiteSpace=wrap;html=1;" vertex="1" parent="1">
          <mxGeometry x="294" y="40" width="120" height="80" as="geometry" />
        </mxCell>
        <mxCell id="8YLk6Y609KKv_byv0yrs-2" value="Declare variable a,b,c" style="rounded=0;whiteSpace=wrap;html=1;" vertex="1" parent="1">
          <mxGeometry x="294" y="170" width="120" height="60" as="geometry" />
        </mxCell>
        <mxCell id="8YLk6Y609KKv_byv0yrs-3" value="a = 0" style="rhombus;whiteSpace=wrap;html=1;" vertex="1" parent="1">
          <mxGeometry x="314" y="270" width="80" height="80" as="geometry" />
        </mxCell>
        <mxCell id="8YLk6Y609KKv_byv0yrs-4" value="Phương trình bậc 1 bx+c = 0" style="rounded=0;whiteSpace=wrap;html=1;" vertex="1" parent="1">
          <mxGeometry x="120" y="380" width="120" height="60" as="geometry" />
        </mxCell>
        <mxCell id="8YLk6Y609KKv_byv0yrs-5" value="Delta = b*b - 4ac" style="rounded=0;whiteSpace=wrap;html=1;" vertex="1" parent="1">
          <mxGeometry x="430" y="390" width="120" height="60" as="geometry" />
        </mxCell>
        <mxCell id="8YLk6Y609KKv_byv0yrs-6" value="" style="endArrow=classic;html=1;rounded=0;entryX=0.427;entryY=-0.023;entryDx=0;entryDy=0;entryPerimeter=0;" edge="1" parent="1" target="8YLk6Y609KKv_byv0yrs-5">
          <mxGeometry width="50" height="50" relative="1" as="geometry">
            <mxPoint x="394" y="310" as="sourcePoint" />
            <mxPoint x="444" y="260" as="targetPoint" />
            <Array as="points">
              <mxPoint x="481" y="310" />
            </Array>
          </mxGeometry>
        </mxCell>
        <mxCell id="8YLk6Y609KKv_byv0yrs-7" value="" style="endArrow=classic;html=1;rounded=0;exitX=0;exitY=0.5;exitDx=0;exitDy=0;entryX=0.5;entryY=0;entryDx=0;entryDy=0;" edge="1" parent="1" source="8YLk6Y609KKv_byv0yrs-3" target="8YLk6Y609KKv_byv0yrs-4">
          <mxGeometry width="50" height="50" relative="1" as="geometry">
            <mxPoint x="270" y="335" as="sourcePoint" />
            <mxPoint x="200" y="320" as="targetPoint" />
            <Array as="points">
              <mxPoint x="180" y="310" />
            </Array>
          </mxGeometry>
        </mxCell>
        <mxCell id="8YLk6Y609KKv_byv0yrs-8" value="Delta &amp;lt; 0" style="rhombus;whiteSpace=wrap;html=1;" vertex="1" parent="1">
          <mxGeometry x="440" y="490" width="80" height="80" as="geometry" />
        </mxCell>
        <mxCell id="8YLk6Y609KKv_byv0yrs-9" value="Vô nghiệm" style="rounded=0;whiteSpace=wrap;html=1;" vertex="1" parent="1">
          <mxGeometry x="280" y="600" width="120" height="60" as="geometry" />
        </mxCell>
        <mxCell id="8YLk6Y609KKv_byv0yrs-10" value="Delta = 0" style="rhombus;whiteSpace=wrap;html=1;" vertex="1" parent="1">
          <mxGeometry x="610" y="590" width="80" height="80" as="geometry" />
        </mxCell>
        <mxCell id="8YLk6Y609KKv_byv0yrs-11" value="Nghiệm kép x = -b/2a" style="rounded=0;whiteSpace=wrap;html=1;" vertex="1" parent="1">
          <mxGeometry x="420" y="730" width="120" height="60" as="geometry" />
        </mxCell>
        <mxCell id="8YLk6Y609KKv_byv0yrs-12" value="x1 = (-b+sqrt(Delta))/2a&lt;br&gt;x2 = (-b-sqrt(Delta))/2a" style="rounded=0;whiteSpace=wrap;html=1;" vertex="1" parent="1">
          <mxGeometry x="620" y="730" width="180" height="60" as="geometry" />
        </mxCell>
        <mxCell id="8YLk6Y609KKv_byv0yrs-13" value="" style="endArrow=classic;html=1;rounded=0;" edge="1" parent="1">
          <mxGeometry width="50" height="50" relative="1" as="geometry">
            <mxPoint x="479.5" y="450" as="sourcePoint" />
            <mxPoint x="479.5" y="500" as="targetPoint" />
          </mxGeometry>
        </mxCell>
        <mxCell id="8YLk6Y609KKv_byv0yrs-14" value="" style="endArrow=classic;html=1;rounded=0;exitX=0;exitY=0.5;exitDx=0;exitDy=0;entryX=0.5;entryY=0;entryDx=0;entryDy=0;" edge="1" parent="1" source="8YLk6Y609KKv_byv0yrs-8" target="8YLk6Y609KKv_byv0yrs-9">
          <mxGeometry width="50" height="50" relative="1" as="geometry">
            <mxPoint x="350" y="550" as="sourcePoint" />
            <mxPoint x="400" y="500" as="targetPoint" />
            <Array as="points">
              <mxPoint x="340" y="530" />
            </Array>
          </mxGeometry>
        </mxCell>
        <mxCell id="8YLk6Y609KKv_byv0yrs-15" value="" style="endArrow=classic;html=1;rounded=0;entryX=0.5;entryY=0;entryDx=0;entryDy=0;" edge="1" parent="1" target="8YLk6Y609KKv_byv0yrs-10">
          <mxGeometry width="50" height="50" relative="1" as="geometry">
            <mxPoint x="520" y="530" as="sourcePoint" />
            <mxPoint x="570" y="480" as="targetPoint" />
            <Array as="points">
              <mxPoint x="650" y="530" />
            </Array>
          </mxGeometry>
        </mxCell>
        <mxCell id="8YLk6Y609KKv_byv0yrs-16" value="" style="endArrow=classic;html=1;rounded=0;exitX=0.5;exitY=1;exitDx=0;exitDy=0;entryX=0.55;entryY=0;entryDx=0;entryDy=0;entryPerimeter=0;" edge="1" parent="1" source="8YLk6Y609KKv_byv0yrs-9" target="8YLk6Y609KKv_byv0yrs-17">
          <mxGeometry width="50" height="50" relative="1" as="geometry">
            <mxPoint x="294" y="720" as="sourcePoint" />
            <mxPoint x="340" y="810" as="targetPoint" />
          </mxGeometry>
        </mxCell>
        <mxCell id="8YLk6Y609KKv_byv0yrs-17" value="End" style="ellipse;whiteSpace=wrap;html=1;" vertex="1" parent="1">
          <mxGeometry x="274" y="840" width="120" height="80" as="geometry" />
        </mxCell>
        <mxCell id="8YLk6Y609KKv_byv0yrs-20" value="" style="endArrow=none;html=1;rounded=0;entryX=0;entryY=0.5;entryDx=0;entryDy=0;" edge="1" parent="1" target="8YLk6Y609KKv_byv0yrs-11">
          <mxGeometry width="50" height="50" relative="1" as="geometry">
            <mxPoint x="340" y="760" as="sourcePoint" />
            <mxPoint x="390" y="710" as="targetPoint" />
          </mxGeometry>
        </mxCell>
        <mxCell id="8YLk6Y609KKv_byv0yrs-21" value="" style="endArrow=classic;html=1;rounded=0;exitX=0.03;exitY=0.603;exitDx=0;exitDy=0;exitPerimeter=0;entryX=0.5;entryY=0;entryDx=0;entryDy=0;" edge="1" parent="1" source="8YLk6Y609KKv_byv0yrs-10" target="8YLk6Y609KKv_byv0yrs-11">
          <mxGeometry width="50" height="50" relative="1" as="geometry">
            <mxPoint x="530" y="660" as="sourcePoint" />
            <mxPoint x="580" y="610" as="targetPoint" />
            <Array as="points">
              <mxPoint x="480" y="640" />
            </Array>
          </mxGeometry>
        </mxCell>
        <mxCell id="8YLk6Y609KKv_byv0yrs-22" value="" style="endArrow=classic;html=1;rounded=0;entryX=0.709;entryY=-0.01;entryDx=0;entryDy=0;entryPerimeter=0;" edge="1" parent="1" target="8YLk6Y609KKv_byv0yrs-12">
          <mxGeometry width="50" height="50" relative="1" as="geometry">
            <mxPoint x="690" y="630" as="sourcePoint" />
            <mxPoint x="740" y="580" as="targetPoint" />
            <Array as="points">
              <mxPoint x="750" y="630" />
            </Array>
          </mxGeometry>
        </mxCell>
        <mxCell id="8YLk6Y609KKv_byv0yrs-23" value="" style="endArrow=classic;html=1;rounded=0;" edge="1" parent="1">
          <mxGeometry width="50" height="50" relative="1" as="geometry">
            <mxPoint x="179.5" y="440" as="sourcePoint" />
            <mxPoint x="270" y="880" as="targetPoint" />
            <Array as="points">
              <mxPoint x="180" y="880" />
            </Array>
          </mxGeometry>
        </mxCell>
        <mxCell id="8YLk6Y609KKv_byv0yrs-24" value="" style="endArrow=classic;html=1;rounded=0;" edge="1" parent="1">
          <mxGeometry width="50" height="50" relative="1" as="geometry">
            <mxPoint x="353.5" y="120" as="sourcePoint" />
            <mxPoint x="353.5" y="170" as="targetPoint" />
          </mxGeometry>
        </mxCell>
        <mxCell id="8YLk6Y609KKv_byv0yrs-25" value="" style="endArrow=classic;html=1;rounded=0;entryX=0.5;entryY=0;entryDx=0;entryDy=0;" edge="1" parent="1" target="8YLk6Y609KKv_byv0yrs-3">
          <mxGeometry width="50" height="50" relative="1" as="geometry">
            <mxPoint x="353.5" y="230" as="sourcePoint" />
            <mxPoint x="353.5" y="280" as="targetPoint" />
          </mxGeometry>
        </mxCell>
      </root>
    </mxGraphModel>
  </diagram>
</mxfile>
